<?xml version="1.0" encoding="UTF-8" standalone="no"?>
<!-- Created with Inkscape (http://www.inkscape.org/) -->

<svg
   xmlns:dc="http://purl.org/dc/elements/1.1/"
   xmlns:cc="http://creativecommons.org/ns#"
   xmlns:rdf="http://www.w3.org/1999/02/22-rdf-syntax-ns#"
   xmlns:svg="http://www.w3.org/2000/svg"
   xmlns="http://www.w3.org/2000/svg"
   xmlns:sodipodi="http://sodipodi.sourceforge.net/DTD/sodipodi-0.dtd"
   xmlns:inkscape="http://www.inkscape.org/namespaces/inkscape"
   version="1.1"
   id="svg10"
   width="266.88"
   height="377.60001"
   viewBox="0 0 266.88 377.60001"
   sodipodi:docname="pinkpibomb.svg"
   inkscape:version="0.92.4 (5da689c313, 2019-01-14)">
  <metadata
     id="metadata16">
    <rdf:RDF>
      <cc:Work
         rdf:about="">
        <dc:format>image/svg+xml</dc:format>
        <dc:type
           rdf:resource="http://purl.org/dc/dcmitype/StillImage" />
        <dc:title></dc:title>
      </cc:Work>
    </rdf:RDF>
  </metadata>
  <defs
     id="defs14" />
  <sodipodi:namedview
     pagecolor="#ffffff"
     bordercolor="#666666"
     borderopacity="1"
     objecttolerance="10"
     gridtolerance="10"
     guidetolerance="10"
     inkscape:pageopacity="0"
     inkscape:pageshadow="2"
     inkscape:window-width="1920"
     inkscape:window-height="1001"
     id="namedview12"
     showgrid="false"
     inkscape:zoom="1.5130886"
     inkscape:cx="246.58888"
     inkscape:cy="129.7806"
     inkscape:window-x="-9"
     inkscape:window-y="-9"
     inkscape:window-maximized="1"
     inkscape:current-layer="svg10" />
  <g
     id="g52"
     transform="translate(-0.4223158,-0.19357346)">
    <path
       style="fill:#c6a67a;stroke-width:0.31999999"
       d="M 122.08,376.12734 C 90.281597,373.71182 61.979626,360.64958 39.34969,337.94465 22.896387,321.43684 11.27976,300.95394 5.616231,278.46446 1.0486983,260.3271 0.65537072,240.10192 4.5165872,221.92001 10.930057,191.7199 28.408602,164.35123 53.426794,145.33427 c 2.75032,-2.09059 2.744137,-2.08623 6.933833,-4.88404 7.011488,-4.68214 16.562135,-9.64653 23.479373,-12.20451 0.968,-0.35796 1.94,-0.79332 2.16,-0.96746 0.26817,-0.21227 0.4,-1.28875 0.4,-3.26625 0,-6.69844 2.643091,-12.19231 8.124934,-16.88832 1.251287,-1.07191 2.323066,-2.06925 2.381732,-2.21631 0.05867,-0.14706 -4.355962,-0.26738 -9.810285,-0.26738 -8.917127,0 -10.475395,-0.0812 -15.455946,-0.80575 -3.534221,-0.51413 -6.257549,-1.09323 -7.524291,-1.6 -1.091917,-0.43684 -2.320739,-0.79675 -2.730723,-0.7998 -1.544621,-0.0115 -5.24056,-0.97608 -7.13256,-1.861455 -2.708205,-1.267322 -4.163683,-2.647015 -5.296586,-5.0208 -0.953443,-1.997754 -0.991782,-2.031828 -3.061088,-2.720449 -4.395145,-1.462611 -7.455968,-4.340764 -8.652288,-8.135923 -0.489545,-1.553018 -0.769353,-1.872387 -3.23767,-3.695411 C 29.946455,77.002725 27.52,73.25324 27.52,69.979093 27.52,69.24885 27.019889,68.507861 25.317337,66.715515 22.62406,63.880197 21.76,61.883976 21.76,58.497077 c 0,-2.171264 -0.06184,-2.360823 -1.309006,-4.012685 -2.646615,-3.505418 -3.632055,-6.875085 -2.881859,-9.854388 0.330668,-1.313196 0.300462,-1.56199 -0.290384,-2.391756 C 15.814921,40.182487 14.92,37.664974 14.92,35.602814 c 0,-1.666237 0.19205,-2.371872 1.157889,-4.254355 l 1.157889,-2.2568 -0.650483,-1.825829 c -0.751603,-2.109663 -0.897969,-5.095796 -0.341283,-6.962817 0.517987,-1.737229 2.370753,-3.837827 4.204742,-4.767179 C 22.143103,14.677242 24.956053,14.08 27.305586,14.08 c 1.444362,0 1.729519,-0.132334 3.151715,-1.462632 2.670024,-2.497493 6.350097,-3.6418254 11.743915,-3.6518113 2.96793,-0.00549 3.014742,-0.017779 4.220931,-1.107497 1.586794,-1.4335715 3.894989,-2.0980595 7.287917,-2.0980595 2.462582,0 2.850838,-0.08787 4.192566,-0.9488532 C 58.715891,4.2892776 60.312499,3.6227825 61.450643,3.3300468 63.206797,2.8783567 63.883245,2.853531 65.92,3.1660204 c 1.32,0.2025214 3.048,0.5627701 3.84,0.8005531 1.374301,0.4126081 1.52353,0.3903837 3.270874,-0.4871206 1.612435,-0.8097542 2.166028,-0.9175172 4.64,-0.9032288 2.490499,0.014384 3.150054,0.1540495 5.814851,1.2313405 l 3.005728,1.2151162 2.114272,-0.4508061 c 2.937657,-0.6263677 4.963136,-0.3106151 8.10951,1.2641959 2.586784,1.2947254 2.646205,1.3073056 6.308075,1.3354835 3.4291,0.026387 3.82409,0.09543 5.45669,0.9538144 0.968,0.5089524 2.77424,1.9084285 4.01386,3.1099465 l 2.25386,2.184579 2.24424,-0.06786 c 2.16621,-0.0655 2.32119,-0.01787 4.45727,1.370054 4.6081,2.99411 9.84145,8.96792 13.39644,15.291891 1.48675,2.64479 2.2931,4.404383 4.70508,10.267379 0.17226,0.418742 0.39705,0.67751 0.49953,0.575036 0.10247,-0.102473 0.72521,-1.525081 1.38386,-3.16135 3.72849,-9.262561 9.27072,-17.074456 15.49706,-21.843449 2.86906,-2.19752 4.24474,-2.729117 6.46852,-2.499603 l 1.64699,0.169985 2.56137,-2.395365 C 171.293,7.6805151 172.4026,7.2097666 176.96,7.1590376 c 3.62588,-0.04036 3.72017,-0.060465 6.41133,-1.366944 3.22162,-1.5640036 5.10762,-1.8517597 8.02375,-1.2242266 l 2.11508,0.4551514 3.00492,-1.2233354 c 2.65677,-1.0816006 3.32006,-1.2242533 5.72492,-1.2312568 2.35086,-0.00685 2.98797,0.118851 4.69454,0.926196 l 1.97453,0.9341171 2.02547,-0.6458445 c 2.40856,-0.7680004 6.55699,-0.9126057 8.42546,-0.2936931 0.704,0.2331939 1.94061,0.839521 2.74802,1.3473936 1.31934,0.8298897 1.74285,0.9234049 4.18192,0.9234049 3.37169,0 5.51152,0.614758 7.2149,2.0727904 1.30139,1.1139367 1.35209,1.1272749 4.30603,1.1327661 5.26664,0.00979 9.259,1.2887363 11.94913,3.8278903 1.22688,1.158019 1.39346,1.215588 4.01389,1.387115 6.68343,0.437481 10.21552,3.57723 10.22298,9.087434 0.002,1.548554 -0.21237,2.88397 -0.65179,4.058418 l -0.65491,1.750421 0.95771,1.701583 c 2.05125,3.644517 1.95899,6.538901 -0.32939,10.333081 -1.27421,2.112672 -1.28547,2.158768 -0.9097,3.725152 0.70109,2.922477 -0.25584,6.139146 -2.84247,9.554739 -0.72948,0.963264 -1.33344,1.827264 -1.34214,1.92 -0.009,0.09274 -0.0548,1.320612 -0.1024,2.728612 -0.11251,3.326803 -0.86927,5.00335 -3.4249,7.587645 -1.83198,1.852518 -2.01177,2.161193 -2.26363,3.886224 -0.53651,3.674665 -2.47957,6.498835 -6.5404,9.506234 -2.45846,1.82071 -2.70871,2.110672 -3.15929,3.660617 -1.05947,3.644448 -3.97816,6.432263 -8.46758,8.087904 -2.35943,0.870128 -2.38049,0.888266 -3.42802,2.953441 -1.78855,3.526041 -3.75168,4.744758 -10.28522,6.385073 -5.72955,1.43846 -25.15114,3.53286 -32.76063,3.53286 h -4.7262 l -3.61295,-1.57227 c -7.91318,-3.443631 -8.35684,-3.57678 -12.58308,-3.77647 -4.12628,-0.194966 -5.75145,-0.03165 -6.71802,0.675123 -0.55537,0.406097 -0.47144,0.503037 1.1444,1.321687 6.59724,3.34244 12.66883,8.59362 15.22857,13.17085 2.02973,3.6295 2.45612,5.25941 2.65461,10.14748 0.14153,3.48517 0.28433,4.50403 0.66056,4.713 0.264,0.14663 2.136,1.02719 4.16,1.95679 8.49824,3.90318 18.64344,10.16394 25.92,15.99566 19.40646,15.55309 34.19999,36.48638 42.12501,59.60816 2.70259,7.88499 4.95725,17.7054 6.09788,26.56 0.71131,5.52181 0.811,23.09467 0.15884,28 -1.83659,13.81423 -4.69083,24.76673 -9.25657,35.52 -3.79595,8.94027 -10.39586,20.37117 -16.03345,27.7696 -19.53326,25.63421 -47.22342,43.10298 -77.97171,49.18963 -8.16178,1.61565 -13.15484,2.10749 -22.56,2.22224 -4.84,0.0591 -9.52,0.0527 -10.4,-0.0141 z m 87.28634,-125.0775 c 2.75113,-0.58298 5.52306,-2.05713 7.40289,-3.93695 7.81193,-7.81193 1.03856,-21.17172 -12.62774,-24.90693 -2.84921,-0.77873 -8.43591,-0.78048 -11.01186,-0.003 -2.76286,0.83343 -4.22137,1.65886 -6.14383,3.47705 -9.70656,9.18006 1.67592,25.67073 17.8142,25.80879 1.32,0.0113 3.37485,-0.18605 4.56634,-0.43853 z M 188.584,216.50075 c 15.47114,-2.96012 23.10305,-15.70351 17.51718,-29.24937 -2.92088,-7.08322 -9.88011,-13.87123 -18.12758,-17.68157 -9.89702,-4.57243 -21.65468,-5.00086 -30.10421,-1.09693 -13.53015,6.25131 -16.63724,20.80444 -7.13427,33.41584 5.39976,7.16602 13.94427,12.34486 23.77559,14.4104 3.65114,0.7671 10.59768,0.86663 14.07329,0.20163 z"
       id="path62"
       inkscape:connector-curvature="0" />
    <path
       style="fill:#68bc46;stroke-width:0.31999999"
       d="M 120.96,375.66203 C 103.8688,374.15553 89.527402,370.2194 74.88,363.01492 66.497338,358.89182 60.607261,355.26513 53.44,349.81361 29.90503,331.91265 13.195368,306.83471 6.0696717,278.72001 0.2189362,255.63571 1.0519913,231.32821 8.4663386,208.78828 17.456469,181.4579 35.464061,157.71797 59.52,141.48277 c 7.607994,-5.13459 14.223398,-8.65908 23.68,-12.616 l 3.36,-1.40593 0.200496,-3.81041 c 0.110275,-2.09574 0.42663,-4.56682 0.703014,-5.49131 1.252439,-4.18932 4.566132,-8.73257 8.689418,-11.91366 0.987466,-0.76183 1.681021,-1.49671 1.541232,-1.63308 -0.139789,-0.13636 -5.43816,-0.31263 -11.77416,-0.39169 -10.46504,-0.13058 -11.930262,-0.21647 -16,-0.93784 -2.464,-0.43675 -5.2,-1.08719 -6.08,-1.44542 -0.88,-0.35823 -2.879942,-0.8898 -4.444317,-1.18128 -3.285232,-0.61212 -6.268243,-1.867242 -7.952585,-3.346112 -0.647616,-0.568615 -1.608452,-1.945987 -2.135188,-3.060826 -0.948777,-2.008093 -0.977408,-2.033536 -3.072988,-2.730899 -4.419018,-1.470554 -7.564426,-4.428579 -8.638743,-8.1241 -0.437497,-1.504934 -0.697366,-1.80359 -3.049763,-3.504953 -4.044693,-2.925309 -6.113787,-5.914756 -6.56783,-9.489258 -0.20389,-1.605136 -0.40353,-1.948032 -2.268882,-3.896973 -2.68055,-2.800672 -3.413248,-4.455738 -3.470125,-7.838547 -0.04267,-2.53769 -0.0827,-2.666241 -1.345279,-4.320001 -2.712582,-3.553008 -3.566154,-6.286253 -2.942693,-9.422877 0.364658,-1.834585 0.345222,-2.022995 -0.302513,-2.932656 -1.471326,-2.066288 -2.28273,-4.318781 -2.285968,-6.345952 -0.0026,-1.612173 0.200559,-2.36415 1.152828,-4.267623 l 1.155954,-2.310616 -0.675954,-2.059098 c -1.226401,-3.735874 -0.790021,-6.858888 1.288315,-9.220003 1.72393,-1.958486 3.859279,-2.800016 7.70219,-3.035389 L 29.092917,14.56 30.466459,13.2211 C 33.168154,10.587541 36.24159,9.5587004 41.736493,9.4484259 45.184221,9.3792348 45.250592,9.3634729 46.495603,8.3182245 48.325277,6.7821208 49.947552,6.2983368 53.44,6.2473118 56.197046,6.2070312 56.614029,6.1175966 57.92,5.2864392 60.898474,3.3908526 64.267325,3.0405765 68.668813,4.1688324 L 71.2,4.8176648 73.389251,3.8102391 c 2.03009,-0.9341844 2.379056,-0.9961473 4.8,-0.852295 2.09072,0.1242305 3.152227,0.3911469 5.329184,1.3400275 2.690586,1.1727591 2.739226,1.1809738 4.748173,0.801913 3.222659,-0.608072 5.653549,-0.2669277 8.406678,1.179769 2.340576,1.2299108 2.391424,1.2404071 6.043574,1.2475258 3.42564,0.00668 3.80619,0.071374 5.44314,0.9253683 0.968,0.5050039 2.7789,1.9057733 4.02423,3.1128213 L 114.44845,13.76 h 2.41259 c 2.28528,0 2.51166,0.06725 4.29043,1.274502 7.36673,4.999803 14.49471,15.067674 17.87665,25.249745 0.30478,0.917584 0.71132,1.615943 0.90343,1.551905 0.19211,-0.06404 1.08688,-1.907367 1.98839,-4.096292 2.1616,-5.248554 3.18843,-7.207296 5.96476,-11.378165 2.6482,-3.97839 7.60856,-9.152039 10.79176,-11.255805 1.93196,-1.276819 2.15814,-1.34589 4.40719,-1.34589 h 2.37072 l 2.60021,-2.431686 c 3.56734,-3.3361445 4.60878,-3.7648296 9.22542,-3.797461 3.66914,-0.025933 3.6879,-0.03 6.35706,-1.3784317 2.30774,-1.16585 2.95671,-1.3524212 4.70424,-1.3524212 1.11496,0 2.73633,0.1520813 3.60305,0.3379584 1.47285,0.3158711 1.76145,0.2612087 4.41575,-0.8363811 2.22162,-0.9186717 3.41618,-1.2100688 5.48688,-1.338453 2.49481,-0.1546793 2.76635,-0.1053427 4.72365,0.8582328 l 2.07668,1.0223466 2.61727,-0.6618518 c 4.51811,-1.1425344 7.93947,-0.7670836 10.9073,1.1969389 1.11793,0.7398089 1.60454,0.8412368 4.18654,0.8726329 3.52961,0.042919 5.22688,0.5322125 6.9437,2.0017505 1.2968,1.1100125 1.29858,1.1104448 4.87758,1.1865818 5.4728,0.116424 8.55874,1.1588599 11.48659,3.8801989 1.49568,1.390187 1.52288,1.400045 3.86192,1.400045 7.80018,0 11.79619,5.217361 9.45599,12.34613 l -0.69581,2.119568 1.04787,1.906066 c 1.86183,3.386672 1.66004,6.761975 -0.60863,10.180288 -0.9214,1.388317 -0.94446,1.516116 -0.75502,4.184928 0.24786,3.491831 -0.27893,5.196167 -2.61051,8.445914 -1.67318,2.332058 -1.70322,2.413763 -1.6751,4.555876 0.0442,3.368883 -0.73961,5.263686 -3.21244,7.765619 -1.93365,1.956406 -2.09978,2.24048 -2.50086,4.276458 -0.23629,1.199462 -0.7588,2.839952 -1.16112,3.645529 -0.90622,1.814538 -3.45144,4.434388 -5.96899,6.144023 -1.74147,1.182611 -1.96509,1.470899 -2.58435,3.331773 -1.27959,3.845194 -3.43428,5.89159 -8.13724,7.728291 -2.55842,0.999171 -2.56658,1.006099 -3.61113,3.065485 -1.18777,2.341751 -2.4405,3.565344 -4.75087,4.640394 -2.90421,1.351368 -8.96928,2.692648 -15.1958,3.360538 -14.57444,1.56331 -18.6462,1.90312 -22.80428,1.90312 h -4.4384 l -4.06076,-1.71991 c -7.59583,-3.217163 -7.99532,-3.340507 -11.90622,-3.676055 -2.02099,-0.173399 -4.25054,-0.202346 -4.95454,-0.06433 -1.72447,0.338073 -3.04,0.990489 -3.04,1.507635 0,0.23354 0.98076,0.91852 2.17948,1.52219 7.90264,3.9797 14.72622,10.9169 16.55481,16.83047 0.33526,1.08419 0.62131,3.46862 0.74497,6.20974 l 0.20074,4.44973 4.96,2.30023 c 14.12849,6.55218 26.21516,15.1401 37.45663,26.61401 5.18153,5.28867 6.92941,7.30376 10.92845,12.59922 22.23599,29.44451 30.77521,65.93371 23.77347,101.58708 -6.08963,31.00884 -24.08377,59.07283 -50.39855,78.60246 -17.70746,13.1417 -38.76274,21.43056 -61.28,24.12426 -5.00612,0.59888 -18.85066,0.86688 -23.52,0.4553 z m 89.94501,-124.4436 c 9.19561,-2.84023 12.39172,-11.75928 7.17354,-20.01842 -0.55599,-0.88 -2.11159,-2.62709 -3.45688,-3.88241 -7.42571,-6.92909 -19.64315,-8.38742 -26.70635,-3.18779 -5.08214,3.74126 -6.46542,9.70376 -3.64195,15.69836 2.80888,5.96361 9.45016,10.63328 17.05908,11.99469 2.4776,0.4433 7.13188,0.14942 9.57256,-0.60443 z M 190.4253,216.70002 c 5.3402,-1.42208 9.45626,-3.76352 12.68675,-7.21693 3.65152,-3.90349 5.29434,-8.02453 5.31111,-13.32308 0.0393,-12.41238 -10.32406,-24.26092 -25.41186,-29.05365 -4.49635,-1.42829 -7.26167,-1.82382 -12.4513,-1.78095 -3.89135,0.0321 -5.15223,0.17282 -7.81474,0.87191 -11.70638,3.07374 -18.60854,11.43415 -17.99978,21.80268 0.79439,13.53012 13.92543,25.94818 30.77452,29.10356 3.65655,0.68478 11.62897,0.46893 14.9053,-0.40354 z m -50.85186,-90.27339 c 2.19464,-0.83835 3.46656,-1.78762 3.46656,-2.58716 0,-0.46131 -0.38704,-0.67444 -1.73169,-0.95359 -2.29928,-0.47733 -6.55739,-2.56491 -9.14117,-4.48156 -2.08125,-1.54387 -5.83044,-5.24843 -7.44318,-7.35456 -0.46758,-0.61063 -0.94173,-1.01866 -1.05366,-0.90673 -0.31556,0.31557 -0.72125,4.14417 -0.94273,8.89697 -0.2326,4.99131 -0.0754,5.51704 1.99002,6.65641 2.1951,1.21089 4.92249,1.66679 9.20241,1.53827 2.96036,-0.0889 4.25541,-0.274 5.65344,-0.80805 z m 3.91232,-6.9328 c 0.10684,-0.27839 0.19705,-1.32239 0.20049,-2.32 0.003,-0.9976 0.21824,-3.39783 0.47734,-5.33383 0.2591,-1.936 0.47229,-3.76992 0.47375,-4.07539 0.002,-0.35642 -0.6573,-0.88854 -1.83947,-1.4853 -2.60327,-1.31413 -5.49175,-3.56366 -7.77867,-6.05799 -2.03082,-2.215017 -4.93539,-6.360546 -5.93259,-8.467279 -0.31396,-0.66328 -0.72288,-1.158115 -0.90872,-1.099632 -0.71887,0.226227 -3.69789,11.161861 -3.69789,13.574511 0,1.86559 4.62988,7.89693 8.53397,11.1172 4.15096,3.42391 9.87894,5.69267 10.47179,4.14771 z m 2.37326,-17.09658 c 0.82508,-2.830083 2.34621,-7.542204 2.87877,-8.917795 l 0.54221,-1.400544 -0.8,-0.5124 c -1.76765,-1.132182 -5.28001,-4.833373 -6.91218,-7.283798 -1.83089,-2.748759 -3.54899,-6.221073 -4.45456,-9.002711 -0.30081,-0.924 -0.67614,-1.68 -0.83407,-1.68 -0.76463,0 -6.35455,10.598221 -6.35769,12.053901 -0.003,1.13775 3.41004,7.602768 5.4234,10.274698 1.03025,1.367248 2.59802,3.163901 3.48392,3.992563 1.99456,1.865676 5.45495,4.132186 6.11737,4.006796 0.27453,-0.052 0.67988,-0.73169 0.91283,-1.53071 z m 5.99413,-15.277248 c 1.52914,-2.971555 1.34962,-4.43487 -1.44272,-11.76 -2.5881,-6.789347 -2.98937,-7.674352 -3.96786,-8.751143 -0.75669,-0.832704 -2.79461,-1.968857 -3.53154,-1.968857 -0.60194,0 -4.03103,4.352825 -4.03103,5.116918 0,2.198612 3.06069,9.947217 5.14231,13.018538 2.06085,3.040669 5.28431,6.184544 6.34111,6.184544 0.33778,0 0.9006,-0.695152 1.48973,-1.84 z"
       id="path60"
       inkscape:connector-curvature="0" />
    <path
       style="fill:#c6104f;stroke-width:0.31999999"
       d="M 124.8,375.6426 C 89.011373,374.30446 54.262976,356.64283 31.065496,328.00001 23.021316,318.06755 16.971986,307.91393 11.867428,295.77662 0.57169645,268.9183 -0.71893424,237.40441 8.3381226,209.60001 11.50148,199.88877 16.905597,188.33414 22.081318,180.21546 c 14.788839,-23.19789 35.105642,-40.32259 60.30138,-50.82704 2.278483,-0.94993 4.210316,-1.79477 4.292966,-1.87742 0.08265,-0.0826 0.249952,-2.05843 0.371786,-4.39063 0.242134,-4.6351 0.784105,-6.49891 2.919075,-10.03855 1.136566,-1.88435 5.001139,-5.95439 6.847817,-7.21189 2.190068,-1.49134 1.860557,-1.54985 -8.734342,-1.55096 -9.209347,-9.6e-4 -10.239926,-0.0605 -16.08,-0.92958 -3.799226,-0.56536 -6.805322,-1.18372 -7.685283,-1.5809 -0.794906,-0.35878 -2.378906,-0.80151 -3.52,-0.98383 -6.257207,-0.999787 -9.656247,-3.017352 -11.316643,-6.717211 -0.774205,-1.725152 -0.991997,-1.950093 -2.365396,-2.443005 -3.146752,-1.129363 -5.084822,-2.239155 -6.663465,-3.81568 -1.492234,-1.490231 -1.977373,-2.383674 -3.156403,-5.81289 -0.06886,-0.200269 -1.212906,-1.182765 -2.542333,-2.183321 -4.281109,-3.222055 -6.149294,-5.913105 -6.567541,-9.460295 -0.210265,-1.783274 -0.335064,-2.002237 -2.150589,-3.773235 -2.668234,-2.602801 -3.439569,-4.291495 -3.583518,-7.845444 -0.11395,-2.813334 -0.121585,-2.835808 -1.648726,-4.853443 -2.534436,-3.348455 -3.379606,-6.508704 -2.544681,-9.51505 0.307255,-1.106349 0.237093,-1.352032 -0.946573,-3.314576 -2.334603,-3.870826 -2.421127,-6.580791 -0.327138,-10.246064 l 0.934401,-1.635554 -0.67107,-1.884446 c -1.738261,-4.881252 -0.324658,-9.345213 3.592119,-11.343404 1.292547,-0.659408 4.461131,-1.254908 6.696996,-1.258624 1.256146,-0.0021 1.643698,-0.179162 2.846109,-1.300392 2.806009,-2.616563 6.48814,-3.806579 11.808867,-3.8164693 2.953933,-0.00549 3.004637,-0.018829 4.306022,-1.1327661 1.6852,-1.4424688 3.838919,-2.0727904 7.082423,-2.0727904 2.402816,0 2.76703,-0.094095 5.264108,-1.3600001 2.585709,-1.3108371 2.782381,-1.3580499 5.4405,-1.3060518 1.673372,0.032734 3.596966,0.304054 4.89184,0.6899849 l 2.134025,0.6360372 1.865975,-1.0069796 C 74.827965,3.1604376 75.330902,3.0467501 77.6,3.0525131 c 2.244589,0.0057 2.914838,0.1574425 5.44,1.2315971 2.701194,1.1490352 2.999203,1.2087834 4.8,0.9623584 4.059418,-0.5555002 5.755587,-0.3293849 8.635434,1.1511844 l 2.639475,1.3569901 3.802551,0.042681 c 4.57899,0.051397 5.41333,0.4012006 8.95697,3.7552609 1.2827,1.214078 2.51969,2.232833 2.74887,2.263899 0.22919,0.03106 1.3706,0.06706 2.53648,0.08 1.92399,0.02134 2.29345,0.141097 4,1.296526 3.05097,2.065668 8.38864,7.62572 10.75876,11.206991 2.35285,3.555171 5.18192,9.05744 6.41677,12.48 1.1946,3.310999 1.2188,3.36 1.65969,3.36 0.22358,0 0.88523,-1.332 1.47031,-2.96 1.36331,-3.793405 4.11428,-9.211487 6.53968,-12.88 2.22305,-3.362453 8.0663,-9.41471 10.85033,-11.238439 1.78378,-1.168492 2.02385,-1.237151 4.07927,-1.166616 l 2.18393,0.07494 2.48074,-2.266541 C 168.96367,10.556753 170.8,9.1558143 171.68,8.6901535 c 1.45243,-0.7685667 1.95504,-0.8511751 5.44939,-0.8956483 3.76299,-0.047892 3.89587,-0.074415 5.92,-1.1815572 3.11367,-1.7030899 4.59397,-1.9798055 7.98832,-1.4932762 l 2.83513,0.4063725 2.98358,-1.2242071 c 2.52045,-1.0341802 3.35841,-1.2271279 5.39832,-1.2430222 2.10734,-0.01642 2.67764,0.1134187 4.48,1.0199483 L 208.8,5.1175265 210.88,4.4436251 c 1.39938,-0.4533876 2.97004,-0.6827735 4.8,-0.7010144 2.33522,-0.023277 3.00227,0.100751 4.71536,0.8767545 1.09744,0.4971271 2.15908,1.1011402 2.35918,1.3422513 0.25476,0.3069629 1.16277,0.4383837 3.02889,0.4383837 3.75831,0 5.46891,0.4444966 7.43379,1.9316595 1.66959,1.2636692 1.68664,1.268361 4.62927,1.273897 5.29191,0.00996 8.67689,1.0932903 11.44324,3.6623123 1.42874,1.326824 1.49207,1.349326 4.37367,1.553868 1.67707,0.119042 3.67297,0.487792 4.68041,0.864725 2.05078,0.767293 4.07019,2.760985 4.72059,4.660462 0.61618,1.799546 0.47682,4.784752 -0.32204,6.898309 l -0.68233,1.805232 1.18999,2.278114 c 1.87629,3.591992 1.61381,6.493844 -0.92909,10.271422 -0.91074,1.352947 -0.94732,1.522493 -0.60513,2.804592 0.81621,3.058167 0.14702,5.692816 -2.31897,9.129892 -1.7134,2.388118 -1.71508,2.392844 -1.85857,5.227897 -0.17778,3.51248 -0.82834,4.916733 -3.61247,7.79762 -1.88263,1.948061 -2.02094,2.193929 -2.18031,3.876061 -0.31968,3.374134 -2.5522,6.570377 -6.56847,9.403939 -2.09835,1.480432 -2.31815,1.747802 -2.94113,3.577808 -1.3089,3.844912 -3.72183,6.130288 -8.15588,7.724759 l -2.56,0.920566 -1.00713,2.075357 c -2.80387,5.777869 -7.86654,7.170568 -35.31287,9.714248 -6.13553,0.56863 -10.99228,0.57662 -12.48,0.0205 -0.616,-0.23025 -3.40587,-1.37896 -6.19971,-2.55268 -5.28222,-2.219106 -7.679,-2.739359 -12.69249,-2.755045 -1.80246,-0.0056 -4.46846,1.016182 -4.70856,1.804695 -0.062,0.20363 1.30424,1.11125 3.0361,2.01693 7.8704,4.11585 13.65447,10.08755 15.66466,16.17283 0.71729,2.17139 0.85022,3.15376 0.87571,6.47145 0.0232,3.01648 0.13922,4.01724 0.50717,4.37382 0.26242,0.2543 1.98912,1.13365 3.83712,1.95411 14.68986,6.52188 29.74866,17.45821 41.05665,29.81705 14.68883,16.05388 24.78995,34.46378 30.25606,55.14357 4.25605,16.10178 5.1853,34.38622 2.58581,50.88 -5.45714,34.62569 -24.70016,65.20116 -53.89852,85.64001 -8.41622,5.89136 -16.56166,10.2775 -26.0015,14.00121 -17.09463,6.74327 -33.47414,9.50298 -52.2385,8.80138 z m 86.10501,-124.42417 c 9.19561,-2.84023 12.39172,-11.75928 7.17354,-20.01842 -0.55599,-0.88 -2.11159,-2.62709 -3.45688,-3.88241 -7.42571,-6.92909 -19.64315,-8.38742 -26.70635,-3.18779 -5.08214,3.74126 -6.46542,9.70376 -3.64195,15.69836 2.80888,5.96361 9.45016,10.63328 17.05908,11.99469 2.4776,0.4433 7.13188,0.14942 9.57256,-0.60443 z M 190.4253,216.70002 c 5.3402,-1.42208 9.45626,-3.76352 12.68675,-7.21693 3.65152,-3.90349 5.29434,-8.02453 5.31111,-13.32308 0.0393,-12.41238 -10.32406,-24.26092 -25.41186,-29.05365 -4.49635,-1.42829 -7.26167,-1.82382 -12.4513,-1.78095 -3.89135,0.0321 -5.15223,0.17282 -7.81474,0.87191 -11.70638,3.07374 -18.60854,11.43415 -17.99978,21.80268 0.79439,13.53012 13.92543,25.94818 30.77452,29.10356 3.65655,0.68478 11.62897,0.46893 14.9053,-0.40354 z m -51.09064,-89.99546 c 2.21113,-0.68295 4.14257,-2.17952 3.96991,-3.07607 -0.074,-0.38419 -0.77323,-0.71646 -2.33974,-1.1118 -2.76072,-0.69672 -6.06795,-2.35352 -8.80483,-4.41088 -2.08641,-1.56841 -5.84173,-5.2941 -7.44072,-7.38203 -0.56697,-0.74034 -0.96204,-1.00902 -1.1732,-0.79786 -0.42492,0.42492 -0.98548,6.52842 -0.98581,10.73374 -3.1e-4,3.91893 0.2221,4.33155 3.02698,5.61567 3.23614,1.48155 9.68818,1.683 13.74741,0.42923 z M 143.751,117.6 c 0.28528,-3.16171 0.84704,-7.98252 1.08557,-9.31605 0.17154,-0.95899 0.0908,-1.04435 -2.1692,-2.29353 -5.19079,-2.86915 -9.88058,-7.858865 -13.22464,-14.070418 -0.49744,-0.924 -1.08059,-1.68 -1.29587,-1.68 -0.6174,0 -3.32535,9.437937 -3.85737,13.443948 -0.17901,1.34794 -0.0819,1.60654 1.46018,3.88919 2.50687,3.71071 6.0796,7.36479 9.32013,9.53234 2.86213,1.91445 6.14192,3.25356 7.6502,3.1235 0.75928,-0.0655 0.81176,-0.19929 1.031,-2.62898 z m 1.7631,-13.68 c 0.17185,-0.22 0.54994,-1.36738 0.84018,-2.54974 0.44053,-1.794568 2.05527,-6.578398 2.91282,-8.629525 0.15628,-0.373782 -0.0492,-0.766569 -0.66953,-1.28 -2.23076,-1.846288 -4.77624,-4.410809 -6.0193,-6.064336 -1.62299,-2.158906 -3.98618,-6.681802 -4.99318,-9.556397 -0.88096,-2.514781 -1.08832,-2.785072 -1.72883,-2.253494 -0.58575,0.486131 -3.7737,6.270761 -5.25377,9.533123 -1.19212,2.627667 -1.16014,2.939754 0.68038,6.640371 2.73187,5.492765 6.7605,10.353868 10.75286,12.974818 2.55871,1.67976 2.97991,1.82328 3.47837,1.18518 z M 84.64,98.205151 c 11.99728,-1.353491 21.84127,-5.905357 26.7314,-12.360608 1.98232,-2.616781 3.86357,-6.417277 4.06613,-8.214423 l 0.14852,-1.317664 -3.79303,-3.677968 C 102.43177,63.557198 87.97704,53.594651 68.96,43.112939 c -3.52,-1.940135 -7.048,-3.951066 -7.84,-4.468733 -1.395632,-0.912215 -1.408842,-0.935827 -0.428707,-0.766451 1.273142,0.220012 10.146496,3.696448 15.628707,6.123072 5.7936,2.564454 15.894973,7.650416 20.995446,10.571043 5.526944,3.164829 15.081074,9.508109 19.933864,13.234692 4.17424,3.205513 4.02251,3.166941 6.59069,1.675459 3.76879,-2.188736 7.27698,-6.566365 8.55531,-10.675591 0.86834,-2.791315 0.70915,-8.621097 -0.34313,-12.566429 -1.08307,-4.060742 -4.84865,-11.687386 -7.80929,-15.816587 -2.65135,-3.697847 -6.5473,-7.899145 -7.0417,-7.593593 -0.19757,0.122105 -0.58415,0.995744 -0.85906,1.94142 -0.27492,0.945676 -0.71137,1.800578 -0.96988,1.899781 -0.30971,0.118847 -1.31449,-0.769805 -2.94579,-2.605326 -3.82708,-4.306216 -7.49096,-7.788602 -8.0704,-7.670639 -0.39446,0.0803 -0.49298,0.41545 -0.41812,1.422346 0.11597,1.559898 -0.65932,3.622598 -1.36161,3.622598 -0.27298,0 -1.61247,-1.116137 -2.976634,-2.480304 C 97.166122,16.526123 93.456621,13.76 92.626656,13.76 c -0.317971,0 -0.376416,0.426301 -0.23985,1.749498 0.136503,1.322588 0.05098,1.947274 -0.350499,2.56 C 91.30031,19.19277 90.640816,19.089124 88.794134,17.559961 85.41088,14.758423 80.394659,11.8409 78.96,11.840253 c -0.744995,-3.2e-4 -0.719414,0.105226 0.4,1.65053 1.093062,1.508931 1.29007,3.252698 0.422346,3.738302 -0.401706,0.224807 -1.271511,-0.09089 -3.44,-1.248539 C 71.76016,13.534336 64.64,11.438355 64.64,12.535696 c 0,0.2466 0.72,1.157537 1.6,2.024304 1.623674,1.599259 2.070608,2.879497 1.131101,3.24002 -0.257895,0.09896 -1.603725,-0.197999 -2.990736,-0.659916 C 62.004374,16.348826 54.963341,14.72 53.918822,14.72 c -0.799734,0 -0.539952,0.890492 0.641178,2.197863 1.19712,1.325069 1.490253,2.800144 0.622621,3.133086 -0.273559,0.104974 -1.893559,-0.179815 -3.6,-0.632866 -3.879834,-1.030075 -8.203594,-1.490579 -11.047917,-1.176667 -3.060157,0.337732 -3.228032,0.636352 -1.400704,2.491577 0.828301,0.840945 1.506,1.682701 1.506,1.87057 0,0.446899 -4.04497,0.7521 -10,0.75452 -5.500828,0.0022 -5.434517,-0.05514 -3.399573,2.94145 1.716716,2.527975 3.864294,7.126593 3.917656,8.388887 l 0.04192,0.991581 -2.87759,0.09359 c -1.582675,0.05148 -3.007076,0.223076 -3.165336,0.381335 -0.356822,0.356822 1.333883,3.050099 2.958361,4.71264 0.651572,0.666838 2.14983,1.991696 3.329462,2.944125 2.165986,1.748806 2.807577,2.703837 2.214719,3.296694 -0.508627,0.508627 -2.996452,0.674362 -4.381634,0.291895 -1.58485,-0.437597 -2.040387,-0.07133 -1.434332,1.153254 0.241295,0.487558 2.427185,2.867651 4.857534,5.289101 2.430349,2.421446 4.418816,4.530042 4.418816,4.685763 0,0.462797 -0.897674,0.671604 -2.887286,0.671604 -1.110791,0 -1.971453,0.156156 -2.111741,0.383148 -0.330254,0.534359 4.375379,4.879764 7.894086,7.289773 1.560419,1.068752 2.924048,2.083831 3.030288,2.255732 0.296371,0.479539 -1.29424,0.951347 -3.207293,0.951347 -0.979315,0 -1.821081,0.163094 -1.954304,0.378649 -0.535964,0.867213 4.55882,4.39313 10.84497,7.505418 2.128762,1.053955 3.09912,1.703549 3.036102,2.032484 -0.114688,0.598652 -1.916748,1.241302 -3.548284,1.265388 -3.375444,0.04983 0.924739,2.617492 8.397868,5.014413 2.566077,0.82304 4.84737,1.638666 5.06954,1.8125 0.577846,0.452128 -0.0666,1.14559 -1.763946,1.898128 -0.748,0.331632 -1.36,0.748329 -1.36,0.925987 0,0.997539 5.26271,2.212621 12.16,2.807558 2.024,0.174586 3.932,0.414295 4.24,0.532688 0.953971,0.366701 0.622368,1.332836 -0.88,2.563911 -0.792,0.648985 -1.44,1.298736 -1.44,1.443891 0,0.576621 6.66887,0.545574 12,-0.05587 z m 123.45399,0.04362 c 0.13969,-0.125808 -0.40031,-0.764889 -1.2,-1.420179 -1.51309,-1.239859 -1.85065,-2.207901 -0.89746,-2.573674 0.30609,-0.117459 2.14209,-0.3603 4.08,-0.539648 7.29426,-0.675062 12.32347,-1.814662 12.32347,-2.792454 0,-0.172246 -0.48052,-0.47176 -1.06781,-0.665584 C 220.2324,89.894266 218.88,88.832445 218.88,88.33192 c 0,-0.155734 2.07595,-0.951658 4.61323,-1.768714 8.13145,-2.618509 12.57107,-5.222941 9.04788,-5.307792 -1.39707,-0.03365 -3.50257,-0.699785 -3.65474,-1.156291 -0.0709,-0.21263 1.55186,-1.229645 3.75076,-2.350711 4.16442,-2.123148 9.05187,-5.209545 10.07015,-6.359245 0.53475,-0.603766 0.55835,-0.75183 0.16,-1.003798 -0.257,-0.16256 -1.14191,-0.29777 -1.96645,-0.300464 -1.68326,-0.0055 -3.27038,-0.496394 -3.00311,-0.928851 0.0969,-0.156832 1.53326,-1.247072 3.19184,-2.422755 3.81944,-2.707405 8.07098,-6.629927 7.74962,-7.149901 -0.14046,-0.227274 -1.00044,-0.383392 -2.11189,-0.383392 -2.04574,0 -2.88729,-0.208964 -2.88729,-0.716935 0,-0.180653 1.93068,-2.217248 4.29041,-4.525763 5.53468,-5.414573 6.54095,-7.282695 3.54931,-6.589216 -2.02791,0.47008 -3.53816,0.369132 -4.35337,-0.290986 l -0.74455,-0.602902 1.13933,-1.077098 c 0.62663,-0.592406 2.2245,-2.04359 3.55083,-3.224854 2.48568,-2.213818 4.40804,-4.720145 4.40804,-5.747108 0,-0.523657 -0.30366,-0.585139 -2.89004,-0.585139 -2.30391,0 -2.9283,-0.09969 -3.07867,-0.491546 -0.3996,-1.041347 1.89179,-6.05318 4.57566,-10.008081 1.3261,-1.954113 1.27397,-1.980162 -3.96695,-1.982291 -5.81799,-0.0024 -10,-0.308624 -10,-0.732326 0,-0.175662 0.6649,-1.030218 1.47756,-1.899013 1.02138,-1.091944 1.37497,-1.682209 1.14529,-1.911889 -1.08962,-1.089622 -8.41193,-0.790075 -13.45137,0.550281 -1.64369,0.437175 -3.25398,0.794865 -3.57844,0.794865 -1.3932,0 -0.94372,-2.208669 0.77656,-3.815781 0.90524,-0.8457 1.08977,-1.62422 0.38498,-1.62422 -1.11076,0 -7.32105,1.412656 -10.04201,2.284256 -1.65393,0.529801 -3.21086,0.8851 -3.45986,0.789553 -0.9686,-0.371689 -0.48487,-1.77751 1.14729,-3.334264 0.88,-0.839343 1.6,-1.716458 1.6,-1.949145 0,-1.037884 -6.93681,0.979809 -11.53711,3.355768 -3.30386,1.706375 -3.94263,1.725456 -4.07799,0.121816 -0.07,-0.828667 0.16002,-1.50512 0.86942,-2.557339 0.87791,-1.302165 0.91058,-1.43949 0.36383,-1.529136 -1.235,-0.202495 -6.29719,2.728802 -9.95875,5.766681 -1.71496,1.422856 -2.33317,1.504045 -3.05571,0.401308 -0.40147,-0.612726 -0.487,-1.237412 -0.3505,-2.56 0.15441,-1.496026 0.10277,-1.749498 -0.35642,-1.749498 -0.81265,0 -5.92601,3.965126 -7.65325,5.934673 -2.28518,2.605759 -3.40263,2.20192 -3.4962,-1.263497 -0.0374,-1.384457 -0.18295,-1.977936 -0.50117,-2.043308 -0.65992,-0.135571 -2.95882,2.008401 -6.99073,6.51963 -1.96599,2.199708 -3.73672,3.946542 -3.93497,3.881854 -0.19825,-0.06469 -0.66381,-0.963877 -1.03459,-1.998198 -0.37078,-1.03432 -0.85118,-1.939592 -1.06754,-2.011715 -0.9301,-0.310032 -7.16166,7.521619 -10.0408,12.619004 -2.14554,3.798569 -3.42231,6.745424 -4.57396,10.556896 -0.73818,2.443088 -0.86404,3.454509 -0.89154,7.164662 -0.0278,3.748906 0.0668,4.606234 0.7158,6.485194 0.94103,2.724611 2.86259,5.623127 4.88374,7.366701 1.69768,1.464541 5.29415,3.748106 5.90301,3.748106 0.2082,0 1.4421,-0.835997 2.74199,-1.85777 8.51051,-6.689632 18.84632,-13.240755 30.08243,-19.067059 9.48725,-4.919463 27.24224,-12.381428 28.47925,-11.969092 0.19546,0.06515 -2.86519,1.900563 -6.80143,4.078691 -20.8712,11.549114 -33.7537,20.299703 -44.69275,30.358068 -4.11058,3.779642 -4.40813,4.290346 -3.70738,6.363136 3.50698,10.37362 13.14307,16.956369 28.29856,19.331739 4.69955,0.736579 13.464,0.916742 14.15875,0.291052 z M 151.9722,87.206998 c 1.57076,-3.062493 1.38756,-4.440061 -1.67083,-12.564423 -1.34112,-3.562586 -2.76757,-6.92466 -3.16989,-7.471274 -0.88171,-1.197965 -3.05553,-2.532291 -4.1196,-2.528678 -0.55474,0.0019 -1.18486,0.520598 -2.23989,1.843888 -2.34519,2.941494 -2.34355,2.935456 -1.56849,5.760566 1.41654,5.163344 3.69681,9.782167 6.45757,13.080208 1.7119,2.045047 3.982,3.952717 4.70369,3.952717 0.34685,0 0.92978,-0.751769 1.60744,-2.073004 z"
       id="path58"
       inkscape:connector-curvature="0" />
    <path
       style="fill:#650728;stroke-width:0.31999999"
       d="M 124.8,375.6426 C 89.011373,374.30446 54.262976,356.64283 31.065496,328.00001 23.021316,318.06755 16.971986,307.91393 11.867428,295.77662 0.57169645,268.9183 -0.71893424,237.40441 8.3381226,209.60001 11.50148,199.88877 16.905597,188.33414 22.081318,180.21546 c 14.788839,-23.19789 35.105642,-40.32259 60.30138,-50.82704 2.278483,-0.94993 4.210316,-1.79477 4.292966,-1.87742 0.08265,-0.0826 0.249952,-2.05843 0.371786,-4.39063 0.242134,-4.6351 0.784105,-6.49891 2.919075,-10.03855 1.136566,-1.88435 5.001139,-5.95439 6.847817,-7.21189 2.190068,-1.49134 1.860557,-1.54985 -8.734342,-1.55096 -9.209347,-9.6e-4 -10.239926,-0.0605 -16.08,-0.92958 -3.799226,-0.56536 -6.805322,-1.18372 -7.685283,-1.5809 -0.794906,-0.35878 -2.378906,-0.80151 -3.52,-0.98383 -6.257207,-0.999787 -9.656247,-3.017352 -11.316643,-6.717211 -0.774205,-1.725152 -0.991997,-1.950093 -2.365396,-2.443005 -3.146752,-1.129363 -5.084822,-2.239155 -6.663465,-3.81568 -1.492234,-1.490231 -1.977373,-2.383674 -3.156403,-5.81289 -0.06886,-0.200269 -1.212906,-1.182765 -2.542333,-2.183321 -4.281109,-3.222055 -6.149294,-5.913105 -6.567541,-9.460295 -0.210265,-1.783274 -0.335064,-2.002237 -2.150589,-3.773235 -2.668234,-2.602801 -3.439569,-4.291495 -3.583518,-7.845444 -0.11395,-2.813334 -0.121585,-2.835808 -1.648726,-4.853443 -2.534436,-3.348455 -3.379606,-6.508704 -2.544681,-9.51505 0.307255,-1.106349 0.237093,-1.352032 -0.946573,-3.314576 -2.334603,-3.870826 -2.421127,-6.580791 -0.327138,-10.246064 l 0.934401,-1.635554 -0.67107,-1.884446 c -1.738261,-4.881252 -0.324658,-9.345213 3.592119,-11.343404 1.292547,-0.659408 4.461131,-1.254908 6.696996,-1.258624 1.256146,-0.0021 1.643698,-0.179162 2.846109,-1.300392 2.806009,-2.616563 6.48814,-3.806579 11.808867,-3.8164693 2.953933,-0.00549 3.004637,-0.018829 4.306022,-1.1327661 1.6852,-1.4424688 3.838919,-2.0727904 7.082423,-2.0727904 2.402816,0 2.76703,-0.094095 5.264108,-1.3600001 2.585709,-1.3108371 2.782381,-1.3580499 5.4405,-1.3060518 1.673372,0.032734 3.596966,0.304054 4.89184,0.6899849 l 2.134025,0.6360372 1.865975,-1.0069796 C 74.827965,3.1604376 75.330902,3.0467501 77.6,3.0525131 c 2.244589,0.0057 2.914838,0.1574425 5.44,1.2315971 2.701194,1.1490352 2.999203,1.2087834 4.8,0.9623584 4.059418,-0.5555002 5.755587,-0.3293849 8.635434,1.1511844 l 2.639475,1.3569901 3.802551,0.042681 c 4.57899,0.051397 5.41333,0.4012006 8.95697,3.7552609 1.2827,1.214078 2.51969,2.232833 2.74887,2.263899 0.22919,0.03106 1.3706,0.06706 2.53648,0.08 1.92399,0.02134 2.29345,0.141097 4,1.296526 3.05097,2.065668 8.38864,7.62572 10.75876,11.206991 2.35285,3.555171 5.18192,9.05744 6.41677,12.48 1.1946,3.310999 1.2188,3.36 1.65969,3.36 0.22358,0 0.88523,-1.332 1.47031,-2.96 1.36331,-3.793405 4.11428,-9.211487 6.53968,-12.88 2.22305,-3.362453 8.0663,-9.41471 10.85033,-11.238439 1.78378,-1.168492 2.02385,-1.237151 4.07927,-1.166616 l 2.18393,0.07494 2.48074,-2.266541 C 168.96367,10.556753 170.8,9.1558143 171.68,8.6901535 c 1.45243,-0.7685667 1.95504,-0.8511751 5.44939,-0.8956483 3.76299,-0.047892 3.89587,-0.074415 5.92,-1.1815572 3.11367,-1.7030899 4.59397,-1.9798055 7.98832,-1.4932762 l 2.83513,0.4063725 2.98358,-1.2242071 c 2.52045,-1.0341802 3.35841,-1.2271279 5.39832,-1.2430222 2.10734,-0.01642 2.67764,0.1134187 4.48,1.0199483 L 208.8,5.1175265 210.88,4.4436251 c 1.39938,-0.4533876 2.97004,-0.6827735 4.8,-0.7010144 2.33522,-0.023277 3.00227,0.100751 4.71536,0.8767545 1.09744,0.4971271 2.15908,1.1011402 2.35918,1.3422513 0.25476,0.3069629 1.16277,0.4383837 3.02889,0.4383837 3.75831,0 5.46891,0.4444966 7.43379,1.9316595 1.66959,1.2636692 1.68664,1.268361 4.62927,1.273897 5.29191,0.00996 8.67689,1.0932903 11.44324,3.6623123 1.42874,1.326824 1.49207,1.349326 4.37367,1.553868 1.67707,0.119042 3.67297,0.487792 4.68041,0.864725 2.05078,0.767293 4.07019,2.760985 4.72059,4.660462 0.61618,1.799546 0.47682,4.784752 -0.32204,6.898309 l -0.68233,1.805232 1.18999,2.278114 c 1.87629,3.591992 1.61381,6.493844 -0.92909,10.271422 -0.91074,1.352947 -0.94732,1.522493 -0.60513,2.804592 0.81621,3.058167 0.14702,5.692816 -2.31897,9.129892 -1.7134,2.388118 -1.71508,2.392844 -1.85857,5.227897 -0.17778,3.51248 -0.82834,4.916733 -3.61247,7.79762 -1.88263,1.948061 -2.02094,2.193929 -2.18031,3.876061 -0.31968,3.374134 -2.5522,6.570377 -6.56847,9.403939 -2.09835,1.480432 -2.31815,1.747802 -2.94113,3.577808 -1.3089,3.844912 -3.72183,6.130288 -8.15588,7.724759 l -2.56,0.920566 -1.00713,2.075357 c -2.80387,5.777869 -7.86654,7.170568 -35.31287,9.714248 -6.13553,0.56863 -10.99228,0.57662 -12.48,0.0205 -0.616,-0.23025 -3.40587,-1.37896 -6.19971,-2.55268 -5.28222,-2.219106 -7.679,-2.739359 -12.69249,-2.755045 -1.80246,-0.0056 -4.46846,1.016182 -4.70856,1.804695 -0.062,0.20363 1.30424,1.11125 3.0361,2.01693 7.8704,4.11585 13.65447,10.08755 15.66466,16.17283 0.71729,2.17139 0.85022,3.15376 0.87571,6.47145 0.0232,3.01648 0.13922,4.01724 0.50717,4.37382 0.26242,0.2543 1.98912,1.13365 3.83712,1.95411 14.68986,6.52188 29.74866,17.45821 41.05665,29.81705 14.68883,16.05388 24.78995,34.46378 30.25606,55.14357 4.25605,16.10178 5.1853,34.38622 2.58581,50.88 -5.45714,34.62569 -24.70016,65.20116 -53.89852,85.64001 -8.41622,5.89136 -16.56166,10.2775 -26.0015,14.00121 -17.09463,6.74327 -33.47414,9.50298 -52.2385,8.80138 z m 20.96,-8.87645 c 22.3522,-3.16556 42.21462,-11.72195 59.82096,-25.76988 4.553,-3.63277 14.23284,-13.38951 17.97351,-18.11626 14.85524,-18.77124 23.31682,-40.26054 25.43115,-64.58576 0.50317,-5.789 0.2216,-21.0263 -0.48589,-26.29424 -4.90847,-36.54802 -25.20559,-67.66288 -56.54037,-86.67465 -5.08,-3.08219 -14.3797,-7.72536 -15.47295,-7.72536 -0.29163,0 -0.45606,1.57495 -0.62644,6 -0.26502,6.8835 -0.65353,8.49119 -2.87595,11.90098 -2.65238,4.06946 -6.95814,7.38881 -14.48811,11.16902 -8.541,4.28776 -14.68501,6.29624 -23.85924,7.79957 -5.73373,0.93956 -18.97276,1.02287 -24.42307,0.1537 -10.513558,-1.67664 -18.405434,-4.9531 -23.543786,-9.77466 -4.251836,-3.98971 -5.790918,-8.25831 -4.6223,-12.81986 0.747388,-2.91735 1.910649,-4.85587 4.745676,-7.90846 L 89.28,141.44264 v -2.88132 c 0,-1.68094 -0.131494,-2.88132 -0.315629,-2.88132 -0.64032,0 -9.559309,3.94827 -13.124371,5.80991 -11.48832,5.9991 -20.042112,12.30025 -29.459203,21.70112 -6.68809,6.67657 -10.044083,10.73018 -14.843436,17.92897 -8.605532,12.90788 -14.304783,26.55543 -17.487096,41.87497 -3.265,15.71759 -3.256367,34.20287 0.02341,50.12504 7.765533,37.69893 33.636584,69.31725 69.453816,84.88304 10.366624,4.50522 23.400499,7.95232 34.072509,9.01126 1.936,0.1921 3.952,0.40829 4.48,0.48045 0.528,0.0721 5.064,0.0805 10.08,0.0186 6.87497,-0.0849 10.22282,-0.26883 13.6,-0.7471 z m -24,-3.28521 C 95.233616,361.4547 70.894304,350.74849 51.135715,332.41518 37.618483,319.87301 26.497124,302.51034 20.528988,284.63196 c -3.745702,-11.22078 -5.428749,-21.13693 -5.712723,-33.65814 -0.270035,-11.90658 0.661675,-20.68627 3.316788,-31.25475 1.866328,-7.42878 6.234165,-19.39906 7.078525,-19.39906 0.158394,0 0.462429,1.692 0.675632,3.76 2.662393,25.82429 12.166611,50.1636 27.605132,70.69387 9.496887,12.62903 21.871434,24.32682 34.811207,32.90739 19.018771,12.61167 39.603611,20.02783 63.216451,22.77522 6.72634,0.78262 22.75355,0.78205 29.28,0 12.8142,-1.53757 24.56452,-4.39255 35.931,-8.73015 1.58476,-0.60476 2.94578,-1.03516 3.02452,-0.95641 0.26374,0.26374 -0.37506,1.07926 -4.02254,5.13542 -13.81316,15.36087 -33.12645,27.46928 -53.01298,33.23636 -13.38859,3.88265 -27.44767,5.37241 -40.96,4.34028 z m 17.45884,-198.99928 c 2.74243,-0.003 2.64907,0.69026 1.61591,-12.00166 -0.67242,-8.26038 -0.81762,-11.29168 -0.55323,-11.54931 0.30568,-0.29787 8.07642,-1.74689 9.94554,-1.85456 0.87542,-0.0504 0.99985,1.02325 1.46064,12.60387 0.21359,5.368 0.45173,9.868 0.52921,10 0.27386,0.46662 1.25848,0.21231 4.43862,-1.14638 5.90731,-2.52387 9.63813,-5.5941 11.42978,-9.40599 l 1.01881,-2.16763 0.2828,-13.44 c 0.28269,-13.43444 0.28251,-13.44077 -0.42626,-15.30997 -1.75868,-4.63801 -7.62549,-9.29734 -14.98587,-11.90151 -1.84948,-0.65436 -2.18274,-0.69274 -2.49353,-0.28717 -0.49394,0.64455 -1.06522,5.36714 -1.40637,11.62589 -0.25492,4.67695 -0.37689,5.433 -1.12224,6.95643 -1.40675,2.8753 -5.08491,5.2796 -10.01007,6.54326 -3.14711,0.80746 -8.45189,0.86044 -11.50473,0.11488 -4.81805,-1.17664 -9.22222,-4.09751 -10.66157,-7.0708 -0.68759,-1.42038 -0.70565,-1.68905 -0.48872,-7.27294 0.12389,-3.18893 0.41443,-7.23807 0.64564,-8.99807 0.23121,-1.76 0.31244,-3.32018 0.18051,-3.46708 -0.31111,-0.3464 -4.56556,0.84123 -7.84632,2.19031 -5.59029,2.29878 -9.733099,5.55423 -11.690843,9.18677 -1.024009,1.90001 -1.089881,2.21605 -1.203782,5.7754 -0.116723,3.64755 -0.09454,3.79943 0.708873,4.85275 0.456154,0.59805 2.004215,1.97263 3.440142,3.05464 5.38224,4.05564 12.84438,7.03747 21.22689,8.48214 1.57776,0.27192 2.97905,0.60479 3.11396,0.7397 0.13492,0.13492 0.53962,4.99282 0.89934,10.79534 0.35972,5.80252 0.75843,11.05403 0.88603,11.67003 l 0.232,1.12 2.4,0.2037 c 1.32,0.11204 3.768,0.14878 5.44,0.0817 1.672,-0.0671 3.69648,-0.12279 4.49884,-0.1237 z m 0.11582,-37.7771 c 2.21113,-0.68295 4.14257,-2.17952 3.96991,-3.07607 -0.074,-0.38419 -0.77323,-0.71646 -2.33974,-1.1118 -2.76072,-0.69672 -6.06795,-2.35352 -8.80483,-4.41088 -2.08641,-1.56841 -5.84173,-5.2941 -7.44072,-7.38203 -0.56697,-0.74034 -0.96204,-1.00902 -1.1732,-0.79786 -0.42492,0.42492 -0.98548,6.52842 -0.98581,10.73374 -3.1e-4,3.91893 0.2221,4.33155 3.02698,5.61567 3.23614,1.48155 9.68818,1.683 13.74741,0.42923 z M 143.751,117.6 c 0.28528,-3.16171 0.84704,-7.98252 1.08557,-9.31605 0.17154,-0.95899 0.0908,-1.04435 -2.1692,-2.29353 -5.19079,-2.86915 -9.88058,-7.858865 -13.22464,-14.070418 -0.49744,-0.924 -1.08059,-1.68 -1.29587,-1.68 -0.6174,0 -3.32535,9.437937 -3.85737,13.443948 -0.17901,1.34794 -0.0819,1.60654 1.46018,3.88919 2.50687,3.71071 6.0796,7.36479 9.32013,9.53234 2.86213,1.91445 6.14192,3.25356 7.6502,3.1235 0.75928,-0.0655 0.81176,-0.19929 1.031,-2.62898 z m 1.7631,-13.68 c 0.17185,-0.22 0.54994,-1.36738 0.84018,-2.54974 0.44053,-1.794568 2.05527,-6.578398 2.91282,-8.629525 0.15628,-0.373782 -0.0492,-0.766569 -0.66953,-1.28 -2.23076,-1.846288 -4.77624,-4.410809 -6.0193,-6.064336 -1.62299,-2.158906 -3.98618,-6.681802 -4.99318,-9.556397 -0.88096,-2.514781 -1.08832,-2.785072 -1.72883,-2.253494 -0.58575,0.486131 -3.7737,6.270761 -5.25377,9.533123 -1.19212,2.627667 -1.16014,2.939754 0.68038,6.640371 2.73187,5.492765 6.7605,10.353868 10.75286,12.974818 2.55871,1.67976 2.97991,1.82328 3.47837,1.18518 z M 84.64,98.205151 c 11.99728,-1.353491 21.84127,-5.905357 26.7314,-12.360608 1.98232,-2.616781 3.86357,-6.417277 4.06613,-8.214423 l 0.14852,-1.317664 -3.79303,-3.677968 C 102.43177,63.557198 87.97704,53.594651 68.96,43.112939 c -3.52,-1.940135 -7.048,-3.951066 -7.84,-4.468733 -1.395632,-0.912215 -1.408842,-0.935827 -0.428707,-0.766451 1.273142,0.220012 10.146496,3.696448 15.628707,6.123072 5.7936,2.564454 15.894973,7.650416 20.995446,10.571043 5.526944,3.164829 15.081074,9.508109 19.933864,13.234692 4.17424,3.205513 4.02251,3.166941 6.59069,1.675459 3.76879,-2.188736 7.27698,-6.566365 8.55531,-10.675591 0.86834,-2.791315 0.70915,-8.621097 -0.34313,-12.566429 -1.08307,-4.060742 -4.84865,-11.687386 -7.80929,-15.816587 -2.65135,-3.697847 -6.5473,-7.899145 -7.0417,-7.593593 -0.19757,0.122105 -0.58415,0.995744 -0.85906,1.94142 -0.27492,0.945676 -0.71137,1.800578 -0.96988,1.899781 -0.30971,0.118847 -1.31449,-0.769805 -2.94579,-2.605326 -3.82708,-4.306216 -7.49096,-7.788602 -8.0704,-7.670639 -0.39446,0.0803 -0.49298,0.41545 -0.41812,1.422346 0.11597,1.559898 -0.65932,3.622598 -1.36161,3.622598 -0.27298,0 -1.61247,-1.116137 -2.976634,-2.480304 C 97.166122,16.526123 93.456621,13.76 92.626656,13.76 c -0.317971,0 -0.376416,0.426301 -0.23985,1.749498 0.136503,1.322588 0.05098,1.947274 -0.350499,2.56 C 91.30031,19.19277 90.640816,19.089124 88.794134,17.559961 85.41088,14.758423 80.394659,11.8409 78.96,11.840253 c -0.744995,-3.2e-4 -0.719414,0.105226 0.4,1.65053 1.093062,1.508931 1.29007,3.252698 0.422346,3.738302 -0.401706,0.224807 -1.271511,-0.09089 -3.44,-1.248539 C 71.76016,13.534336 64.64,11.438355 64.64,12.535696 c 0,0.2466 0.72,1.157537 1.6,2.024304 1.623674,1.599259 2.070608,2.879497 1.131101,3.24002 -0.257895,0.09896 -1.603725,-0.197999 -2.990736,-0.659916 C 62.004374,16.348826 54.963341,14.72 53.918822,14.72 c -0.799734,0 -0.539952,0.890492 0.641178,2.197863 1.19712,1.325069 1.490253,2.800144 0.622621,3.133086 -0.273559,0.104974 -1.893559,-0.179815 -3.6,-0.632866 -3.879834,-1.030075 -8.203594,-1.490579 -11.047917,-1.176667 -3.060157,0.337732 -3.228032,0.636352 -1.400704,2.491577 0.828301,0.840945 1.506,1.682701 1.506,1.87057 0,0.446899 -4.04497,0.7521 -10,0.75452 -5.500828,0.0022 -5.434517,-0.05514 -3.399573,2.94145 1.716716,2.527975 3.864294,7.126593 3.917656,8.388887 l 0.04192,0.991581 -2.87759,0.09359 c -1.582675,0.05148 -3.007076,0.223076 -3.165336,0.381335 -0.356822,0.356822 1.333883,3.050099 2.958361,4.71264 0.651572,0.666838 2.14983,1.991696 3.329462,2.944125 2.165986,1.748806 2.807577,2.703837 2.214719,3.296694 -0.508627,0.508627 -2.996452,0.674362 -4.381634,0.291895 -1.58485,-0.437597 -2.040387,-0.07133 -1.434332,1.153254 0.241295,0.487558 2.427185,2.867651 4.857534,5.289101 2.430349,2.421446 4.418816,4.530042 4.418816,4.685763 0,0.462797 -0.897674,0.671604 -2.887286,0.671604 -1.110791,0 -1.971453,0.156156 -2.111741,0.383148 -0.330254,0.534359 4.375379,4.879764 7.894086,7.289773 1.560419,1.068752 2.924048,2.083831 3.030288,2.255732 0.296371,0.479539 -1.29424,0.951347 -3.207293,0.951347 -0.979315,0 -1.821081,0.163094 -1.954304,0.378649 -0.535964,0.867213 4.55882,4.39313 10.84497,7.505418 2.128762,1.053955 3.09912,1.703549 3.036102,2.032484 -0.114688,0.598652 -1.916748,1.241302 -3.548284,1.265388 -3.375444,0.04983 0.924739,2.617492 8.397868,5.014413 2.566077,0.82304 4.84737,1.638666 5.06954,1.8125 0.577846,0.452128 -0.0666,1.14559 -1.763946,1.898128 -0.748,0.331632 -1.36,0.748329 -1.36,0.925987 0,0.997539 5.26271,2.212621 12.16,2.807558 2.024,0.174586 3.932,0.414295 4.24,0.532688 0.953971,0.366701 0.622368,1.332836 -0.88,2.563911 -0.792,0.648985 -1.44,1.298736 -1.44,1.443891 0,0.576621 6.66887,0.545574 12,-0.05587 z m 123.45399,0.04362 c 0.13969,-0.125808 -0.40031,-0.764889 -1.2,-1.420179 -1.51309,-1.239859 -1.85065,-2.207901 -0.89746,-2.573674 0.30609,-0.117459 2.14209,-0.3603 4.08,-0.539648 7.29426,-0.675062 12.32347,-1.814662 12.32347,-2.792454 0,-0.172246 -0.48052,-0.47176 -1.06781,-0.665584 C 220.2324,89.894266 218.88,88.832445 218.88,88.33192 c 0,-0.155734 2.07595,-0.951658 4.61323,-1.768714 8.13145,-2.618509 12.57107,-5.222941 9.04788,-5.307792 -1.39707,-0.03365 -3.50257,-0.699785 -3.65474,-1.156291 -0.0709,-0.21263 1.55186,-1.229645 3.75076,-2.350711 4.16442,-2.123148 9.05187,-5.209545 10.07015,-6.359245 0.53475,-0.603766 0.55835,-0.75183 0.16,-1.003798 -0.257,-0.16256 -1.14191,-0.29777 -1.96645,-0.300464 -1.68326,-0.0055 -3.27038,-0.496394 -3.00311,-0.928851 0.0969,-0.156832 1.53326,-1.247072 3.19184,-2.422755 3.81944,-2.707405 8.07098,-6.629927 7.74962,-7.149901 -0.14046,-0.227274 -1.00044,-0.383392 -2.11189,-0.383392 -2.04574,0 -2.88729,-0.208964 -2.88729,-0.716935 0,-0.180653 1.93068,-2.217248 4.29041,-4.525763 5.53468,-5.414573 6.54095,-7.282695 3.54931,-6.589216 -2.02791,0.47008 -3.53816,0.369132 -4.35337,-0.290986 l -0.74455,-0.602902 1.13933,-1.077098 c 0.62663,-0.592406 2.2245,-2.04359 3.55083,-3.224854 2.48568,-2.213818 4.40804,-4.720145 4.40804,-5.747108 0,-0.523657 -0.30366,-0.585139 -2.89004,-0.585139 -2.30391,0 -2.9283,-0.09969 -3.07867,-0.491546 -0.3996,-1.041347 1.89179,-6.05318 4.57566,-10.008081 1.3261,-1.954113 1.27397,-1.980162 -3.96695,-1.982291 -5.81799,-0.0024 -10,-0.308624 -10,-0.732326 0,-0.175662 0.6649,-1.030218 1.47756,-1.899013 1.02138,-1.091944 1.37497,-1.682209 1.14529,-1.911889 -1.08962,-1.089622 -8.41193,-0.790075 -13.45137,0.550281 -1.64369,0.437175 -3.25398,0.794865 -3.57844,0.794865 -1.3932,0 -0.94372,-2.208669 0.77656,-3.815781 0.90524,-0.8457 1.08977,-1.62422 0.38498,-1.62422 -1.11076,0 -7.32105,1.412656 -10.04201,2.284256 -1.65393,0.529801 -3.21086,0.8851 -3.45986,0.789553 -0.9686,-0.371689 -0.48487,-1.77751 1.14729,-3.334264 0.88,-0.839343 1.6,-1.716458 1.6,-1.949145 0,-1.037884 -6.93681,0.979809 -11.53711,3.355768 -3.30386,1.706375 -3.94263,1.725456 -4.07799,0.121816 -0.07,-0.828667 0.16002,-1.50512 0.86942,-2.557339 0.87791,-1.302165 0.91058,-1.43949 0.36383,-1.529136 -1.235,-0.202495 -6.29719,2.728802 -9.95875,5.766681 -1.71496,1.422856 -2.33317,1.504045 -3.05571,0.401308 -0.40147,-0.612726 -0.487,-1.237412 -0.3505,-2.56 0.15441,-1.496026 0.10277,-1.749498 -0.35642,-1.749498 -0.81265,0 -5.92601,3.965126 -7.65325,5.934673 -2.28518,2.605759 -3.40263,2.20192 -3.4962,-1.263497 -0.0374,-1.384457 -0.18295,-1.977936 -0.50117,-2.043308 -0.65992,-0.135571 -2.95882,2.008401 -6.99073,6.51963 -1.96599,2.199708 -3.73672,3.946542 -3.93497,3.881854 -0.19825,-0.06469 -0.66381,-0.963877 -1.03459,-1.998198 -0.37078,-1.03432 -0.85118,-1.939592 -1.06754,-2.011715 -0.9301,-0.310032 -7.16166,7.521619 -10.0408,12.619004 -2.14554,3.798569 -3.42231,6.745424 -4.57396,10.556896 -0.73818,2.443088 -0.86404,3.454509 -0.89154,7.164662 -0.0278,3.748906 0.0668,4.606234 0.7158,6.485194 0.94103,2.724611 2.86259,5.623127 4.88374,7.366701 1.69768,1.464541 5.29415,3.748106 5.90301,3.748106 0.2082,0 1.4421,-0.835997 2.74199,-1.85777 8.51051,-6.689632 18.84632,-13.240755 30.08243,-19.067059 9.48725,-4.919463 27.24224,-12.381428 28.47925,-11.969092 0.19546,0.06515 -2.86519,1.900563 -6.80143,4.078691 -20.8712,11.549114 -33.7537,20.299703 -44.69275,30.358068 -4.11058,3.779642 -4.40813,4.290346 -3.70738,6.363136 3.50698,10.37362 13.14307,16.956369 28.29856,19.331739 4.69955,0.736579 13.464,0.916742 14.15875,0.291052 z M 151.9722,87.206998 c 1.57076,-3.062493 1.38756,-4.440061 -1.67083,-12.564423 -1.34112,-3.562586 -2.76757,-6.92466 -3.16989,-7.471274 -0.88171,-1.197965 -3.05553,-2.532291 -4.1196,-2.528678 -0.55474,0.0019 -1.18486,0.520598 -2.23989,1.843888 -2.34519,2.941494 -2.34355,2.935456 -1.56849,5.760566 1.41654,5.163344 3.69681,9.782167 6.45757,13.080208 1.7119,2.045047 3.982,3.952717 4.70369,3.952717 0.34685,0 0.92978,-0.751769 1.60744,-2.073004 z"
       id="path56"
       inkscape:connector-curvature="0" />
    <path
       style="fill:#040302;stroke-width:0.31999999"
       d="M 122.64776,375.3538 C 94.7448,373.51243 67.925206,362.42686 47.002659,344.08676 29.460912,328.71018 16.835122,310.00435 9.3580445,288.31409 -5.262433,245.90153 4.3662026,198.22518 34.431994,164.16 48.198467,148.5623 63.936845,137.25551 82.500224,129.62676 l 4.379776,-1.79991 0.362,-4.47342 c 0.412067,-5.09216 0.887802,-6.75206 2.84121,-9.91343 1.30303,-2.10879 5.053417,-6.04668 7.491721,-7.86626 C 99.573158,104.08256 99.071744,104 88.016886,104 c -9.195331,0 -10.740915,-0.079 -15.901116,-0.81313 -3.36146,-0.47821 -6.371248,-1.08765 -7.307133,-1.4796 -0.875251,-0.36655 -2.891251,-0.93267 -4.48,-1.25803 C 54.255485,99.205494 51.549894,97.599289 49.907155,94.262412 48.725712,91.862562 48.610723,91.746159 46.88,91.198018 45.188941,90.662444 42.64424,89.37533 41.396486,88.42445 39.979069,87.344278 38.829917,85.569759 38.047542,83.25302 37.432947,81.4331 37.202618,81.143068 35.407104,79.928185 31.21358,77.090748 28.880556,73.830645 28.4971,70.272335 28.292388,68.372703 28.225388,68.259125 26.014971,66.064722 23.40055,63.46924 22.72,61.845128 22.72,58.201365 c 0,-2.109892 -0.0427,-2.221984 -1.755888,-4.609818 -2.484464,-3.462826 -3.204262,-6.249555 -2.380488,-9.216163 0.317312,-1.142724 0.254603,-1.367428 -0.9377,-3.360001 -2.331579,-3.896531 -2.450768,-6.165116 -0.51556,-9.812936 l 1.086807,-2.048607 -0.653065,-1.85692 c -0.908929,-2.584439 -0.921031,-5.912073 -0.02784,-7.656666 1.444879,-2.822178 3.64488,-3.957107 8.349893,-4.307515 l 3.326154,-0.247717 1.473846,-1.42943 c 2.719148,-2.637202 6.0936,-3.7201533 11.62271,-3.7300353 2.958845,-0.00529 3.15959,-0.04974 4.16,-0.9211817 C 48.441658,7.285909 49.500976,6.9406155 53.28,6.7842315 56.066058,6.6689384 56.98055,6.5111586 57.665923,6.027516 c 0.476259,-0.3360778 1.556259,-0.9210461 2.4,-1.2999293 2.059059,-0.9246237 6.10841,-0.9153418 9.028618,0.020694 l 2.054541,0.6585578 2.105459,-1.0234196 C 75.0656,3.5031012 75.695584,3.3620017 77.76,3.3743162 c 2.044838,0.012198 2.826192,0.1948983 5.28,1.2346026 2.698755,1.1434919 3.000829,1.2037524 4.8,0.9575498 3.974854,-0.543928 5.776646,-0.3211933 8.275347,1.0229857 2.228071,1.1985923 2.38768,1.2336841 6.444653,1.4169437 5.03046,0.2272336 5.92303,0.6037638 9.38673,3.95981 L 114.29346,14.24 h 2.46052 c 2.41884,0 2.49565,0.02527 4.53327,1.49121 4.25891,3.064015 7.36903,6.35172 10.69792,11.308791 1.96553,2.926872 5.35662,9.782486 6.42357,12.98623 0.4641,1.393575 0.97599,2.55537 1.13754,2.58177 0.16154,0.0264 0.44729,0.0624 0.635,0.08 0.1877,0.0176 0.91025,-1.48 1.60566,-3.328 3.80192,-10.103333 10.28252,-19.17518 16.93306,-23.703682 1.91562,-1.304385 2.24438,-1.418177 4.16,-1.439835 1.144,-0.01293 2.26751,-0.04894 2.4967,-0.08 0.22918,-0.03107 1.46617,-1.049821 2.74887,-2.263899 3.47902,-3.2929 4.36157,-3.6649537 8.99443,-3.7917691 3.77807,-0.1034173 3.88278,-0.1266173 6.49242,-1.4385412 2.88094,-1.4483168 4.40733,-1.6403126 8.54758,-1.0751552 1.79862,0.2455178 2.10206,0.1849437 4.8,-0.9582007 2.46076,-1.042648 3.2321,-1.2223706 5.29877,-1.2346026 2.12586,-0.012582 2.6604,0.1122241 4.41409,1.0306161 l 1.99531,1.0449318 2.30592,-0.7048537 c 4.30202,-1.3150109 8.3222,-0.861146 11.35999,1.2825056 0.68537,0.4836426 1.59986,0.6414224 4.38592,0.7567155 3.77902,0.156384 4.83834,0.5016775 6.81114,2.2201435 1.00041,0.8714413 1.20115,0.9158934 4.16,0.9211817 5.53074,0.00988 8.74564,1.0459143 11.63647,3.7499433 l 1.55671,1.456116 3.32095,0.211983 c 2.6352,0.16821 3.64183,0.377111 4.87489,1.011665 3.90666,2.010439 5.13648,6.451302 3.15678,11.399076 -0.51922,1.297653 -0.51921,1.297697 0.67045,3.651665 1.87169,3.703484 1.69785,5.953442 -0.76154,9.85662 -1.0849,1.721795 -1.09321,1.762672 -0.69567,3.419805 0.72555,3.024442 -0.17302,6.006301 -2.88014,9.557571 -1.16701,1.530925 -1.22531,1.724336 -1.35035,4.480001 -0.15989,3.523648 -1.07959,5.462809 -3.7472,7.900857 -1.68127,1.536586 -1.76507,1.690074 -2.00334,3.669296 -0.43737,3.63297 -2.25247,6.175543 -6.82003,9.553409 -1.46903,1.086403 -2.40912,2.00968 -2.40912,2.366041 0,1.155207 -2.257,5.110138 -3.45438,6.053089 -1.44166,1.135331 -3.90936,2.402809 -5.74942,2.953059 -1.60296,0.47935 -1.79476,0.681952 -3.09107,3.265187 -2.17307,4.330416 -7.50869,6.27876 -21.19473,7.73943 -14.49165,1.54665 -17.24538,1.77821 -21.15503,1.77892 -3.77688,6.4e-4 -4.02987,-0.0427 -6.72,-1.15226 -9.93953,-4.099616 -9.426,-3.934743 -13.41605,-4.307469 -4.21687,-0.393917 -5.64897,-0.26313 -7.50891,0.685741 -1.68227,0.858228 -1.51485,1.499318 0.69267,2.652448 5.96307,3.11487 10.11647,6.28374 13.10474,9.99838 3.51453,4.36882 4.79679,8.18405 4.80662,14.30158 l 0.006,3.4577 1.84,0.82573 c 16.75697,7.51992 28.50205,15.62924 40.83884,28.19696 10.35616,10.55001 17.71826,20.98835 24.04814,34.09659 6.59556,13.65843 10.16667,25.80723 12.05339,41.00532 0.80002,6.44433 0.95853,20.0412 0.30405,26.08 -2.91891,26.93232 -13.22863,50.91455 -30.46529,70.86768 -3.30204,3.8224 -10.95439,11.4273 -14.53913,14.44893 -15.35233,12.9407 -32.65045,21.83261 -51.84,26.64777 -11.96951,3.00346 -26.26795,4.3337 -38.15223,3.54941 z M 140,367.98238 c 53.10404,-4.57792 96.94601,-43.21351 107.46404,-94.70237 2.02011,-9.88902 2.59248,-16.80824 2.35593,-28.48 -0.22147,-10.92736 -0.98143,-17.06156 -3.27735,-26.454 -7.23406,-29.59398 -25.91401,-55.55186 -51.82262,-72.01334 -7.82617,-4.97249 -18.07633,-10.03966 -18.9097,-9.34801 -0.33359,0.27685 -0.45392,1.25513 -0.46425,3.77452 -0.0262,6.39264 -0.45042,9.71441 -1.5371,12.0366 -2.29793,4.91057 -6.19073,8.41527 -13.46559,12.12314 -9.11833,4.64745 -16.71599,6.18138 -29.10721,5.87658 -10.6926,-0.26302 -18.53647,-2.10361 -26.92041,-6.317 -7.126847,-3.58162 -12.250626,-8.64901 -14.087346,-13.93231 -0.764128,-2.198 -0.875303,-4.72577 -0.48106,-10.93783 0.2408,-3.7943 0.213866,-4.25263 -0.260614,-4.43471 -0.68993,-0.26475 -6.17247,1.94798 -12.04672,4.86199 -33.934093,16.83356 -57.668615,48.24284 -64.462354,85.30681 -1.390665,7.58692 -1.879083,13.43441 -1.892498,22.65756 -0.0068,4.664 0.162768,10.136 0.376782,12.16 2.523133,23.86205 10.941377,44.70095 25.466118,63.04 4.089875,5.1639 13.617738,14.68393 18.855258,18.83978 6.45462,5.12153 14.216992,10.07552 21.520844,13.73472 13.447152,6.73696 29.75801,11.24409 44.61585,12.32857 3.49645,0.25523 14.57746,0.18125 18.08,-0.1207 z m 1.92,-203.34527 c 3.52402,-0.71817 9.14095,-1.81295 10.72,-2.0894 1.99791,-0.34978 6.30753,-2.22438 9.0653,-3.94322 2.75173,-1.71508 5.89298,-4.89969 6.8964,-6.9916 1.0599,-2.20965 1.23505,-4.28936 1.46313,-17.37289 0.23401,-13.42413 0.20705,-13.64172 -2.12263,-17.13043 -2.38752,-3.57535 -8.14629,-7.43104 -14.14734,-9.47213 -1.90946,-0.64945 -2.31176,-0.69768 -2.6873,-0.32214 -0.62494,0.62494 -1.28725,5.49826 -1.64465,12.10144 -0.34543,6.38216 -0.62402,7.28635 -2.87027,9.31571 -4.165,3.76283 -12.68699,5.51497 -19.07264,3.92139 -5.00492,-1.24901 -9.49532,-4.31264 -10.41775,-7.10761 -0.48863,-1.48058 -0.21711,-10.76039 0.46124,-15.76348 0.46018,-3.39404 0.41534,-4.18293 -0.23773,-4.18252 -0.20116,1.3e-4 -1.69613,0.36489 -3.32213,0.81059 -9.10428,2.49552 -15.779659,7.28394 -17.668312,12.67393 -0.546694,1.5602 -0.607574,2.94468 -0.673459,15.31525 -0.07954,14.93346 -0.09066,14.82976 1.897063,17.68352 4.215118,6.0516 12.869678,10.14103 25.961078,12.26704 6.42445,1.04332 14.10001,1.16286 18.4,0.28655 z m -4.27393,-37.09885 c 2.43628,-0.51638 4.27849,-1.37783 5.30917,-2.48268 0.56968,-0.61066 0.70924,-1.12173 0.68571,-2.51114 -0.0163,-0.95944 0.12405,-2.68044 0.31179,-3.82444 0.68323,-4.1635 1.33075,-11.10253 1.1298,-12.10728 -0.14717,-0.73588 -0.0536,-1.19852 0.32767,-1.6198 0.29353,-0.32434 0.88447,-1.90046 1.31319,-3.50247 0.42873,-1.602012 1.28735,-4.268659 1.90805,-5.925878 0.6207,-1.657219 1.12855,-3.450749 1.12855,-3.985622 0,-0.643946 0.25809,-1.175511 0.76394,-1.573412 0.42017,-0.330502 1.21217,-1.488848 1.76,-2.574099 1.62437,-3.217859 1.47489,-4.533146 -1.38746,-12.208275 -1.31093,-3.515156 -2.59761,-6.805207 -2.85928,-7.311226 -0.68033,-1.315613 -2.79348,-3.128666 -4.17976,-3.586183 -1.08678,-0.358665 -1.2525,-0.329222 -1.9768,0.351223 -1.44025,1.353046 -3.35307,4.053622 -3.66093,5.168633 -0.16882,0.611396 -1.05476,1.874394 -1.99776,2.848013 -1.29663,1.33873 -2.31039,2.972048 -4.31819,6.957281 -1.72327,3.420486 -2.62376,5.575004 -2.62376,6.277641 0,1.320279 -0.4916,2.667309 -1.28151,3.511456 -0.70464,0.753021 -1.83393,4.207911 -3.17885,9.725236 -0.70661,2.898722 -0.95239,4.632392 -0.91383,6.445692 0.039,1.83423 -0.0847,2.69018 -0.47469,3.28543 -0.61419,0.93738 -1.16278,5.87309 -1.27581,11.47854 -0.075,3.71876 -0.0713,3.73905 0.84231,4.69678 2.37183,2.48623 9.16166,3.62953 14.64845,2.46658 z M 87.52,97.935667 c 13.45381,-2.205319 22.16999,-7.539949 26.42919,-16.175665 2.25559,-4.573306 2.26909,-4.790045 0.42594,-6.84007 -0.83544,-0.929213 -3.33162,-3.282628 -5.54706,-5.229809 C 99.091405,61.13243 86.241632,52.548056 68,42.414664 c -6.709789,-3.727351 -8.126448,-4.628871 -6.56,-4.174589 4.142944,1.201475 16.064998,6.253142 24.16,10.237181 10.949878,5.389094 21.13542,11.607994 30.46154,18.598643 2.67385,2.004256 5.02969,3.644103 5.23521,3.644103 0.20552,0 1.25782,-0.468 2.33846,-1.04 2.55864,-1.354336 6.18152,-4.967664 7.48952,-7.469783 4.02712,-7.703597 1.87325,-18.893671 -5.84568,-30.370218 -2.96294,-4.405306 -6.83372,-8.926677 -7.75661,-9.060311 -0.59212,-0.08574 -0.76883,0.16138 -1.21644,1.701111 -0.28803,0.990783 -0.74173,1.885092 -1.00822,1.987355 -0.32363,0.124187 -1.07594,-0.493853 -2.26545,-1.861112 -3.09611,-3.558759 -8.36005,-8.671077 -8.78429,-8.531271 -0.25294,0.08335 -0.46886,0.941867 -0.56804,2.258575 -0.10531,1.398038 -0.34511,2.308995 -0.70154,2.664987 -0.50855,0.50794 -0.73502,0.357573 -3.718943,-2.469229 -3.19873,-3.0303 -6.469827,-5.319275 -7.07081,-4.947848 -0.213312,0.131835 -0.21895,0.477361 -0.01648,1.009903 0.511255,1.344698 0.350381,2.602615 -0.452163,3.535628 -0.870006,1.011444 -0.438938,1.19635 -4.558573,-1.955388 C 84.690986,14.282333 79.766138,11.52 78.866918,11.52 c -0.704227,0 -0.557593,0.648997 0.498906,2.208154 1.062691,1.568298 1.207702,2.623074 0.447373,3.254091 -0.430925,0.357637 -0.921994,0.199157 -3.28,-1.058539 -4.02128,-2.144842 -10.981008,-4.32747 -11.929584,-3.741217 -0.281808,0.174167 0.135913,0.825111 1.418473,2.210429 1.876711,2.027068 2.114573,2.562513 1.401325,3.154455 -0.305968,0.253932 -1.176918,0.102545 -3.28,-0.570125 C 60.965168,15.960687 55.397843,14.72 54.01448,14.72 c -1.213056,0 -1.126182,0.477061 0.38552,2.117065 1.303334,1.413951 1.691962,2.864937 0.853514,3.18668 -0.23457,0.09001 -1.510218,-0.133658 -2.834775,-0.497045 -5.498595,-1.508518 -9.901485,-1.933915 -13.042989,-1.260183 -2.017696,0.432719 -2.086416,0.984004 -0.33575,2.693484 0.704,0.687437 1.28,1.436662 1.28,1.664943 0,0.3266 -1.415114,0.415988 -6.64,0.419426 -6.814939,0.0045 -8.08,0.122532 -8.08,0.753976 0,0.200035 0.516346,1.083241 1.147435,1.962678 1.385532,1.930771 3.213037,5.472826 3.993219,7.739623 0.748426,2.174535 0.454755,2.432212 -2.653668,2.328432 C 25.073292,35.728462 24.96,35.747182 24.96,36.345771 c 0,0.941318 2.316937,4.003497 4.413999,5.83376 4.481723,3.911539 4.660513,4.100496 4.435275,4.687459 -0.190333,0.496 -0.587184,0.549834 -3.305102,0.448346 -2.06445,-0.07709 -3.128206,0.0019 -3.207635,0.238121 -0.217489,0.646855 2.725024,4.153488 6.135085,7.311271 C 35.28423,56.580277 36.8,58.170123 36.8,58.39772 c 0,0.593514 -0.751328,0.802282 -2.887286,0.802282 -1.03122,0 -1.953479,0.127075 -2.049469,0.282387 -0.09599,0.155315 0.115712,0.651366 0.470445,1.102336 0.813248,1.033878 5.579523,5.008016 8.44448,7.04104 2.580441,1.831126 2.480188,2.146826 -0.755258,2.37832 -1.876976,0.134298 -2.262912,0.257094 -2.262912,0.72 0,1.040352 5.049318,4.426861 11.225139,7.528544 1.570173,0.788586 2.854861,1.553236 2.854861,1.69922 0,0.445184 -1.529002,0.994217 -3.372022,1.210828 C 47.506589,81.275669 46.72,81.469973 46.72,81.594463 c 0,0.926707 4.953978,3.27889 10.815962,5.135498 3.09262,0.979494 4.229731,1.474489 4.16,1.810889 -0.10273,0.495597 -1.151463,1.18458 -2.56985,1.688311 -0.571725,0.203043 -0.812141,0.471267 -0.695306,0.775734 0.421207,1.097642 5.113264,2.197805 11.787248,2.763799 3.995012,0.3388 5.301946,0.650579 5.301946,1.264813 0,0.160044 -0.71993,0.910976 -1.599843,1.668742 -1.755699,1.511974 -1.869594,1.728899 -1.040157,1.981101 1.17128,0.356137 10.953952,-0.143475 14.64,-0.747683 z m 120.6274,0.51312 c 0.54857,-0.401124 0.48584,-0.502688 -0.89884,-1.455373 -0.81871,-0.563287 -1.48856,-1.077463 -1.48856,-1.142611 0,-0.06515 -0.0832,-0.335191 -0.18482,-0.600087 -0.31477,-0.820291 0.84236,-1.123258 6.26888,-1.641363 5.40543,-0.516093 8.58142,-1.151981 9.85581,-1.973306 0.97361,-0.627481 0.82591,-0.921401 -0.89987,-1.790697 -2.48947,-1.253978 -2.1857,-1.589476 2.94391,-3.251373 5.09351,-1.650205 9.96567,-3.920106 10.11123,-4.71074 0.0735,-0.399206 -0.27515,-0.565888 -1.53253,-0.732684 -1.96577,-0.260768 -3.20261,-0.700496 -3.20261,-1.138608 0,-0.178144 1.044,-0.848506 2.32,-1.489693 6.49228,-3.262359 11.86987,-6.833441 11.69153,-7.763978 -0.0749,-0.390931 -0.63931,-0.571735 -2.29701,-0.735856 -2.43557,-0.241133 -3.29388,-0.735994 -2.31647,-1.335559 3.60074,-2.208771 10.44195,-8.047667 10.44195,-8.912083 0,-0.489862 -0.28676,-0.574774 -1.94104,-0.574774 -2.15247,0 -3.33583,-0.434346 -2.94635,-1.08144 0.13607,-0.226058 1.65134,-1.67538 3.36727,-3.220714 3.26656,-2.941792 6.00012,-6.232893 6.00012,-7.223908 0,-0.535264 -0.24659,-0.567932 -3.03218,-0.401744 -2.75153,0.16416 -3.05324,0.126016 -3.25974,-0.412102 -0.17796,-0.463773 0.22117,-0.979504 1.83152,-2.36655 4.41397,-3.801892 7.65004,-7.810567 6.90592,-8.554689 -0.1404,-0.140403 -1.52487,-0.209225 -3.0766,-0.152944 -1.80925,0.06562 -2.89922,-0.02368 -3.03846,-0.248979 -0.50894,-0.823488 1.39817,-5.198507 4.01032,-9.19993 2.19845,-3.367676 2.33356,-3.297001 -6.30306,-3.297001 -3.73997,0 -6.87978,-0.129169 -6.97735,-0.287042 -0.0976,-0.157873 0.49059,-1.030011 1.30703,-1.938085 1.64378,-1.828281 1.59674,-2.126929 -0.40828,-2.592115 -2.82624,-0.65572 -7.43955,-0.198966 -13.01557,1.288649 -1.37306,0.366313 -2.63306,0.581603 -2.8,0.478422 -0.68751,-0.424899 -0.25713,-1.814486 0.97645,-3.152765 1.5206,-1.649659 1.59903,-2.117065 0.35523,-2.117065 -1.48633,0 -6.67093,1.152944 -10.04538,2.233877 -1.71494,0.549345 -3.26023,0.910956 -3.43397,0.80358 -0.72115,-0.445698 -0.20984,-1.596135 1.51144,-3.400722 1.35988,-1.425691 1.7184,-1.983066 1.40155,-2.178894 -0.94315,-0.582893 -7.81975,1.558852 -11.82499,3.682939 -2.92877,1.553205 -3.39931,1.669646 -3.68964,0.913049 -0.36055,-0.939581 -0.19791,-1.602743 0.76576,-3.122292 1.61032,-2.539218 1.28962,-2.681546 -2.23556,-0.992147 -2.39817,1.149291 -5.09174,2.934468 -7.63984,5.063347 -0.76183,0.636495 -1.58383,1.157264 -1.82666,1.157264 -0.86073,0 -1.49753,-1.873181 -1.26621,-3.724628 0.11788,-0.943455 0.12481,-1.715373 0.0154,-1.715373 -1.02909,0 -4.9963,2.976313 -7.8402,5.881945 -1.14019,1.16493 -2.23186,2.118056 -2.42593,2.118056 -0.64495,0 -1.23617,-1.627793 -1.24867,-3.437956 -0.008,-1.198388 -0.15335,-1.834439 -0.44034,-1.930615 -0.41151,-0.137903 -5.44269,4.739023 -8.95519,8.680614 -1.04894,1.177084 -1.83936,1.80638 -2.12918,1.695165 -0.25351,-0.09728 -0.69316,-0.975702 -0.97699,-1.952043 -0.67393,-2.318252 -1.19544,-2.300393 -3.43408,0.117607 -5.60036,6.049067 -10.50397,14.54437 -12.48353,21.627228 -0.80247,2.871255 -1.10594,9.159293 -0.56196,11.64425 0.62129,2.838147 2.12033,5.634861 4.22789,7.887847 1.98981,2.127113 6.07969,4.949286 7.1679,4.946121 0.33723,-9.6e-4 1.62114,-0.810204 2.85314,-1.798275 12.89131,-10.338886 31.85626,-20.94001 50.79514,-28.393719 5.29692,-2.084691 7.39898,-2.758173 6.80486,-2.180221 -0.176,0.17121 -3.488,2.071178 -7.36,4.222151 -21.1378,11.742461 -36.69781,22.587581 -45.40017,31.643319 -2.0569,2.140426 -2.1882,2.363235 -2.01644,3.421683 0.28831,1.776653 2.61155,6.277847 4.38828,8.502154 5.02877,6.295552 14.39126,10.688564 25.74833,12.08146 6.14942,0.754201 11.92984,0.859081 12.7874,0.232016 z"
       id="path54"
       inkscape:connector-curvature="0" />
  </g>
</svg>
